<svg xmlns="http://www.w3.org/2000/svg" viewBox="0 0 64 64">
  <rect width="64" height="64" rx="15" fill="#2f6b4f"/>
  <path d="M32 51C20 46 12.5 36.5 12.5 26c0-2.1.3-4.1 1-6.1 6.4.6 12.6 3.3 18.5 8.2 5.9-4.9 12.1-7.6 18.5-8.2.7 2 1 4 1 6.1C51.5 36.5 44 46 32 51z" fill="#f3ede1"/>
  <path d="M32 51V23" stroke="#c98a3a" stroke-width="2.6" stroke-linecap="round"/>
  <path d="M32 34c-4-3-8-4.5-12-5M32 40c4-3 8-4.5 12-5" stroke="#c98a3a" stroke-width="1.8" stroke-linecap="round" fill="none" opacity=".8"/>
</svg>
